# xmcd
#
# Track frame offsets: 
#        150
#        6961
#        24022
#        48345
#        66735
#        91234
#        111437
#        133587
#        144904
#        171193
#        188516
#
# Disc length: 3027 seconds
#
# Revision: 0
# Processed by: cddbd v1.5.2PL0 Copyright (c) Steve Scherf et al.
# Submitted via: ExactAudioCopy v1.0b4
#
DISCID=8e0bd10b
DTITLE=Keith Stone - The Prodigal Returns
DYEAR=2016
DGENRE=Blues
TTITLE0=Prelude
TTITLE1=Better Things To Do
TTITLE2=First Love
TTITLE3=Cindi Leigh
TTITLE4=Take Me Home
TTITLE5=New Orleans Moonlight
TTITLE6=Time To Move On
TTITLE7=Make Me Feel Alright
TTITLE8=Buster's Place
TTITLE9=The Prodigal Returns
TTITLE10=Just A Closer Walk With Thee
EXTD=
EXTT0=
EXTT1=
EXTT2=
EXTT3=
EXTT4=
EXTT5=
EXTT6=
EXTT7=
EXTT8=
EXTT9=
EXTT10=
PLAYORDER=
